<svg width="21" height="21" viewBox="0 0 21 21" fill="none" xmlns="http://www.w3.org/2000/svg">
<path d="M19.3058 15.9692C19.3058 16.2992 19.2325 16.6383 19.0767 16.9683C18.9208 17.2983 18.7192 17.61 18.4533 17.9033C18.0042 18.3983 17.5092 18.7558 16.95 18.985C16.4 19.2142 15.8042 19.3333 15.1625 19.3333C14.2275 19.3333 13.2283 19.1133 12.1742 18.6642C11.12 18.215 10.0658 17.61 9.02083 16.8492C7.95577 16.0701 6.95072 15.2121 6.01417 14.2825C5.0872 13.3493 4.23226 12.3473 3.45667 11.285C2.705 10.24 2.1 9.195 1.66 8.15917C1.22 7.11417 1 6.115 1 5.16167C1 4.53833 1.11 3.9425 1.33 3.3925C1.55 2.83333 1.89833 2.32 2.38417 1.86167C2.97083 1.28417 3.6125 1 4.29083 1C4.5475 1 4.80417 1.055 5.03333 1.165C5.27167 1.275 5.4825 1.44 5.6475 1.67833L7.77417 4.67583C7.93917 4.905 8.05833 5.11583 8.14083 5.3175C8.22333 5.51 8.26917 5.7025 8.26917 5.87667C8.26917 6.09667 8.205 6.31667 8.07667 6.5275C7.9575 6.73833 7.78333 6.95833 7.56333 7.17833L6.86667 7.9025C6.76583 8.00333 6.72 8.1225 6.72 8.26917C6.72 8.3425 6.72917 8.40667 6.7475 8.48C6.775 8.55333 6.8025 8.60833 6.82083 8.66333C6.98583 8.96583 7.27 9.36 7.67333 9.83667C8.08583 10.3133 8.52583 10.7992 9.0025 11.285C9.4975 11.7708 9.97417 12.22 10.46 12.6325C10.9367 13.0358 11.3308 13.3108 11.6425 13.4758C11.6883 13.4942 11.7433 13.5217 11.8075 13.5492C11.8808 13.5767 11.9542 13.5858 12.0367 13.5858C12.1925 13.5858 12.3117 13.5308 12.4125 13.43L13.1092 12.7425C13.3383 12.5133 13.5583 12.3392 13.7692 12.2292C13.98 12.1008 14.1908 12.0367 14.42 12.0367C14.5942 12.0367 14.7775 12.0733 14.9792 12.1558C15.1808 12.2383 15.3917 12.3575 15.6208 12.5133L18.655 14.6675C18.8933 14.8325 19.0583 15.025 19.1592 15.2542C19.2508 15.4833 19.3058 15.7125 19.3058 15.9692Z" stroke="#C6C6C6" stroke-width="1.5" stroke-miterlimit="10"/>
</svg>
